<svg xmlns="http://www.w3.org/2000/svg" width="256" height="256"><path fill="#1976D2" fill-opacity=".016" fill-rule="evenodd" d="M0 128.004v128.004l128.25-.254 128.25-.254.254-127.75L257.008 0H0zm.485.496c0 70.4.119 99.053.265 63.672s.146-92.98 0-128S.485 58.1.485 128.5"/><path fill="#1976D2" fill-opacity=".255" fill-rule="evenodd" d="M46 1.57C24.655 7.151 6.971 24.995 1.515 46.46c-2.264 8.907-2.264 154.173 0 163.08 5.513 21.687 23.294 39.471 44.945 44.951 8.901 2.253 154.179 2.253 163.08 0 20.642-5.225 38.276-22.067 43.964-41.991.942-3.3 2.114-6.781 2.605-7.736 1.039-2.026 1.236-155.442.198-154.404-.381.381-1.286-1.681-2.01-4.584-5.209-20.866-23.404-38.862-44.757-44.267C200.89-.681 54.398-.626 46 1.57M.476 128c0 42.625.123 60.063.274 38.75.15-21.312.15-56.187 0-77.5C.599 67.938.476 85.375.476 128"/><path fill="#1976D2" fill-opacity=".412" fill-rule="evenodd" d="M46.216 2.019C24.082 7.818 7.66 24.368 1.972 46.609.097 53.941 0 57.942 0 128s.097 74.059 1.972 81.391c5.738 22.433 22.204 38.899 44.637 44.637C53.941 255.903 57.942 256 128 256c82.961 0 81.35.129 96.239-7.695 14.216-7.47 26.534-23.574 29.836-39.005.683-3.19 1.62-6.228 2.083-6.75.992-1.119 1.159-151.2.167-150.208-.371.371-1.48-2.495-2.464-6.368-5.516-21.721-22.305-38.333-44.47-44.002C202.047.094 198.157.003 127.59.055 57.997.107 53.058.226 46.216 2.019m65.009 37.439c-15.824 3.598-29.087 13.419-35.374 26.196-3.238 6.581-3.351 7.217-3.351 18.828 0 11.809.065 12.154 3.722 19.813 4.22 8.837 11.897 17.557 21.278 24.167 8.06 5.68 9.415 6.434 7.647 4.253-1.421-1.752-1.748-1.019 10.139-22.715 1.657-3.025 3.373-5.738 3.813-6.028.441-.29-1.569-2.361-4.465-4.602-5.781-4.474-8.634-9.309-8.634-14.636C106 76.956 115.031 72 129.204 72c4.471 0 7.836-.294 7.477-.653s.639-2.946 2.219-5.75 4.786-8.697 7.125-13.097 4.64-8.15 5.114-8.333c2.108-.817.461-2.214-4.389-3.723-7.319-2.277-27.395-2.834-35.525-.986M.475 128c0 41.525.124 58.513.275 37.75s.151-54.737 0-75.5S.475 86.475.475 128m79.384 28.158c-2.003 1.161-4.647 3.899-5.875 6.084-1.908 3.396-2.162 5.012-1.741 11.116.537 7.804 2.794 14.473 3.736 11.042.286-1.045 3.642-7.863 7.456-15.15 6.14-11.732 7.229-13.252 9.5-13.265 2.023-.012 2.248-.22 1.065-.985-2.645-1.71-10.274-1.085-14.141 1.158m69.291 14.692c-.218 3.409-6.071 8.767-11.21 10.261-2.442.71-7.815 1.286-11.94 1.281l-7.5-.011 4.935.952c8.676 1.672 21.975-1.977 25.213-6.918.823-1.257 1.307-3.552 1.074-5.1-.357-2.378-.446-2.45-.572-.465"/><path fill="#1976D2" fill-opacity=".836" fill-rule="evenodd" d="M51.322 1.077C38.32 3.301 25.806 10.122 16.714 19.942 10.027 27.165 6.861 32.511 3.29 42.61L.5 50.5v155l3.06 8.544c3.751 10.475 8.748 18.174 16.382 25.242 7.223 6.687 12.569 9.853 22.668 13.424l7.89 2.79h155l7.89-2.79c4.34-1.534 9.908-3.973 12.374-5.418 6.414-3.758 15.488-12.458 19.851-19.032 4.185-6.304 9.351-20.059 9.372-24.951.007-1.755.463-3.469 1.013-3.809.652-.403 1-25.697 1-72.618 0-47.745-.337-71.792-1-71.382-.589.364-1.006-.742-1.013-2.691-.021-4.994-5.144-18.7-9.372-25.069-4.363-6.574-13.437-15.274-19.851-19.032-2.466-1.445-8.034-3.884-12.374-5.418L205.5.5 131 .346C90.025.261 54.17.59 51.322 1.077M119 35.659c-25.133 3.306-43.327 17.143-48.462 36.856-4.368 16.771.732 34.395 13.759 47.544 7.194 7.261 12.84 11.148 30.386 20.921 14.625 8.147 25.185 15.622 28.354 20.072 3.365 4.726 3.691 9.543.85 12.575-3.681 3.929-8.581 5.56-16.887 5.622-12.067.09-20-4.579-20-11.769 0-8.988-8.649-16.766-18.645-16.766-13.929 0-22.039 12.933-18.294 29.174 3.98 17.266 18.124 29.95 39.939 35.818 8.782 2.363 27.102 2.313 35.929-.098 17.138-4.68 30.077-15.223 35.187-28.671 7.167-18.861 2.9-39.295-11.396-54.577-7.529-8.048-14.295-12.933-31.72-22.9-23.218-13.28-31-19.937-31-26.518 0-5.813 8.766-9.942 21.105-9.942 13.405 0 16.838 2.372 18.418 12.727 1.389 9.101 9.513 15.504 19.796 15.6 12.725.12 19.722-10.187 17.589-25.909-2.331-17.173-18.316-32.686-38.908-37.756-6.997-1.723-20.324-2.75-26-2.003M.474 128c0 39.875.124 56.188.276 36.25.151-19.937.151-52.562 0-72.5C.598 71.813.474 88.125.474 128"/></svg>